<!-- icon666.com - MILLIONS vector ICONS FREE --><svg id="Capa_1" enable-background="new 0 0 501.211 501.211" viewBox="0 0 501.211 501.211" xmlns="http://www.w3.org/2000/svg"><g><g><path d="m485.529 133.972c-2.843-7.261-5.299-13.531-6.4-17.439-6.55-23.23-13.932-32.631-26.163-48.206-2.51-3.196-5.355-6.819-8.429-10.872-5.806-7.656-14.014-10.087-21.955-6.506-9.261 4.178-14.858 15.19-17.37 21.382-4.017 9.901-5.436 19.975-3.893 27.638 4.59 22.795 6.529 28.225 8.983 35.099 1.328 3.719 2.799 7.839 5.048 15.84-2.702 1.56-5.598 3.591-8.752 6.132-8.755 7.054-19.398 18.076-30.777 31.876-4.023 4.879-9.065 10.276-14.403 15.99-12.672 13.564-27.034 28.937-36.433 46.276-5.387 9.937-8.536 19.34-9.627 28.746-1.264 10.897.371 21.634 4.859 31.913 3.694 8.459 3.741 28.266 2.693 43.982-2.977-.661-6.121.21-8.338 2.379l-34.675 33.936c-2.236 2.188-3.192 5.371-2.531 8.429s2.845 5.563 5.784 6.633l149.838 54.554c.666.25 1.369.424 2.099.512.364.044.73.066 1.094.066.036 0 .072 0 .108-.001 4.982-.054 9.004-4.109 9.004-9.104 0-.423-.029-.84-.085-1.247l-4.704-47.928c-.328-3.345-2.473-6.22-5.554-7.507-3.429-18.319-7.268-45.809-5.097-54.848 8.21-34.176 37.973-86.058 61.887-127.746 2.191-3.819 4.347-7.577 6.45-11.258 7.834-13.706-.696-38.167-12.661-68.721zm-182.562 261.067 20.244-19.812 4.579 1.667c.006.002.012.005.018.007l67.125 24.439 28.009 10.198 2.767 28.189zm179.413-201.378c-2.099 3.673-4.25 7.422-6.435 11.232-25.77 44.921-54.978 95.836-63.798 132.553-1.844 7.677-1.376 21.122 1.43 41.104.536 3.817 1.104 7.479 1.648 10.799l-26.946-9.811-47.615-17.336c.372-4.451.789-10.583.965-17.312.491-18.737-1.054-31.931-4.724-40.334-6.13-14.039-4.831-28.241 4.088-44.694 8.289-15.29 21.805-29.759 33.731-42.524 5.536-5.926 10.765-11.523 15.146-16.836 9.102-11.038 17.71-20.213 24.893-26.531 4.729-4.16 8.033-6.377 10.17-7.556-.212 5.312-2.357 17.928-13.456 45.493-3.393 8.426-4.23 17.797-5.116 27.718-.928 10.384-1.887 21.121-5.753 32.328-1.64 4.753.884 9.936 5.638 11.576s9.936-.884 11.576-5.638c4.592-13.31 5.699-25.708 6.676-36.646.796-8.912 1.483-16.609 3.87-22.537 7.428-18.45 12.105-33.193 13.899-43.819.834-4.943 3.374-19.983-6.788-26.022-.605-.36-1.297-.707-2.077-1.008-2.725-9.879-4.493-14.831-5.952-18.916-2.294-6.424-3.951-11.066-8.282-32.571-.843-4.189.439-11.368 3.191-17.864 2.674-6.313 5.654-9.619 7.163-10.66.142.153.312.351.505.607 3.167 4.175 6.062 7.862 8.616 11.114 11.577 14.742 17.387 22.141 22.959 41.901 1.345 4.771 3.952 11.429 6.971 19.137 4.135 10.559 8.821 22.526 11.76 33.275 4.198 15.359 2.28 19.371 2.047 19.778z"></path><path d="m186.64 358.204c-2.218-2.171-5.364-3.04-8.342-2.378-1.051-15.708-1.005-35.507 2.696-43.983 4.488-10.279 6.123-21.016 4.859-31.913-1.091-9.406-4.24-18.808-9.627-28.746-9.4-17.339-23.762-32.713-36.433-46.276-5.338-5.714-10.38-11.111-14.403-15.99-11.379-13.8-22.022-24.822-30.777-31.876-3.154-2.541-6.05-4.572-8.752-6.132 2.249-8 3.72-12.121 5.048-15.84 2.455-6.875 4.393-12.305 8.983-35.1 1.543-7.664.124-17.737-3.892-27.638-2.512-6.192-8.109-17.204-17.37-21.382-7.941-3.582-16.149-1.151-21.955 6.506-3.074 4.053-5.919 7.676-8.429 10.872-12.231 15.575-19.614 24.976-26.163 48.206-1.102 3.908-3.557 10.178-6.4 17.439-11.966 30.553-20.496 55.014-12.661 68.723 2.104 3.682 4.26 7.44 6.451 11.259 23.915 41.687 53.677 93.569 61.887 127.744 2.171 9.04-1.668 36.53-5.097 54.849-3.081 1.286-5.225 4.162-5.554 7.507l-4.739 48.286c-.306 3.114 1.009 6.166 3.481 8.084 1.62 1.257 3.589 1.91 5.581 1.91 1.047 0 2.101-.18 3.114-.549l149.917-54.583c2.94-1.07 5.124-3.575 5.784-6.633.661-3.058-.295-6.241-2.531-8.429zm-161.373-153.31c-2.186-3.811-4.337-7.56-6.436-11.233-.233-.407-2.151-4.419 2.047-19.774 2.939-10.749 7.625-22.717 11.76-33.275 3.019-7.709 5.626-14.366 6.971-19.137 5.571-19.76 11.382-27.159 22.959-41.901 2.554-3.253 5.449-6.939 8.616-11.115.193-.255.363-.454.505-.607 1.508 1.041 4.488 4.347 7.163 10.66 2.752 6.496 4.034 13.675 3.191 17.864-4.33 21.505-5.988 26.147-8.281 32.571-1.458 4.085-3.227 9.037-5.952 18.916-.78.3-1.471.648-2.077 1.008-10.162 6.039-7.623 21.079-6.788 26.022 1.794 10.626 6.471 25.369 13.899 43.819 2.387 5.928 3.074 13.625 3.87 22.536.977 10.939 2.085 23.337 6.676 36.647 1.301 3.77 4.83 6.138 8.606 6.138.985 0 1.987-.161 2.97-.5 4.753-1.64 7.277-6.822 5.638-11.576-3.866-11.207-4.825-21.945-5.753-32.329-.886-9.921-1.723-19.291-5.116-27.718-11.099-27.566-13.244-40.181-13.456-45.493 2.137 1.179 5.441 3.396 10.17 7.556 7.183 6.318 15.791 15.492 24.893 26.531 4.381 5.313 9.61 10.91 15.146 16.836 11.926 12.765 25.442 27.234 33.731 42.524 8.919 16.453 10.218 30.655 4.089 44.694-3.67 8.404-5.215 21.598-4.724 40.334.176 6.729.593 12.861.965 17.312l-41.109 14.966-33.453 12.18c.544-3.32 1.112-6.982 1.648-10.799 2.806-19.982 3.274-33.428 1.43-41.105-8.821-36.716-38.028-87.631-63.798-132.552zm50.237 234.833 2.767-28.189 37.951-13.818 57.182-20.819c.005-.002.01-.004.014-.006l4.582-1.668 20.244 19.812z"></path><path d="m245.51 168.94c7.014 7.849 17.117 13.831 29.662 17.49 4.298 1.254 8.884 1.89 13.629 1.89 28.669 0 56.082-23.207 57.235-24.195 2.743-2.351 3.837-6.101 2.788-9.558-.144-.475-3.615-11.776-10.88-24.213-4.36-7.463-9.216-13.847-14.431-18.974-6.885-6.768-14.437-11.384-22.446-13.72-7.036-2.052-13.84-3.093-20.225-3.093-6.559 0-12.743 1.117-18.324 3.278-.861-13.987-7.967-28.031-20.583-40.648-6.895-6.895-16.005-11.922-27.076-14.94-8.226-2.243-17.533-3.38-27.663-3.38-14.295 0-25.323 2.279-25.785 2.376-3.536.742-6.299 3.504-7.041 7.04-.457 2.18-10.894 53.686 15.944 80.524 13.526 13.526 28.581 20.676 43.536 20.676 5.497 0 10.822-.951 15.872-2.805-1.074 7.677-2.21 17.519-3.024 29.045-1.847 26.152-2.289 66.301 6.091 109.054.851 4.343 4.659 7.355 8.925 7.355.581 0 1.17-.056 1.761-.172 4.934-.967 8.151-5.751 7.183-10.686-7.965-40.64-7.563-78.925-5.823-103.886.205-2.932.433-5.755.675-8.458zm50.458-53.8c11.854 3.458 20.719 15.005 26.068 24.082 3.286 5.576 5.695 10.958 7.246 14.827-8.021 5.749-24.621 16.061-40.48 16.061-3.019 0-5.889-.391-8.53-1.161-11.325-3.303-19.62-8.795-23.99-15.882-2.224-3.607-3.419-7.617-3.566-11.866l29.334 8.557c.852.248 1.709.367 2.554.367 3.942 0 7.576-2.582 8.736-6.557 1.408-4.827-1.364-9.882-6.191-11.29l-29.353-8.562c4.869-7.117 12.794-10.94 23.046-10.94 4.658 0 9.747.795 15.126 2.364zm-112.778.802c-15.386-15.386-13.583-45.055-11.952-57.824 3.987-.51 9.62-1.032 15.957-1.032 13.173 0 31.13 2.253 41.863 12.986 15.222 15.222 19.24 31.341 11.627 44.621l-25.221-25.223c-3.556-3.556-9.32-3.556-12.876 0s-3.556 9.32 0 12.876l25.2 25.201c-4.343 2.463-9.054 3.738-13.938 3.738-10.02-.001-20.622-5.306-30.66-15.343z"></path></g></g></svg>